<svg width="205" height="44" viewBox="0 0 205 44" fill="none" xmlns="http://www.w3.org/2000/svg">
<g id="4ASSET">
<path id="Vector" d="M30.8162 14.2858H25.2115V26.9372H6.94545L21.3527 0.418945H15.2341L0.614724 27.3341L0.557617 27.4912V32.2954H25.2115V42.9291H30.8162V32.2706H36.5595V26.9124L30.8162 26.9289V14.2858Z" fill="white"/>
<path id="Vector_2" d="M163.124 7.24809C153.057 7.24809 145.462 15.0953 145.462 25.4975C145.462 35.8997 153.057 43.7469 163.124 43.7469C165.64 43.8095 168.141 43.3255 170.457 42.3271C172.773 41.3287 174.852 39.8391 176.552 37.9587C178.08 36.2568 179.278 34.2793 180.085 32.1291L180.142 31.9886H174.431V32.0464C173.735 33.2158 172.859 34.2653 171.837 35.1555C169.424 37.248 166.331 38.3588 163.157 38.2729C156.916 38.2729 152.029 33.7746 151.222 27.3166H180.811V25.1171C180.86 22.7519 180.436 20.4012 179.564 18.2069C178.692 16.0125 177.39 14.0202 175.737 12.3501C174.084 10.68 172.114 9.36684 169.946 8.48994C167.778 7.61304 165.458 7.19058 163.124 7.24809ZM151.336 22.2561C151.858 19.5015 153.332 17.0255 155.492 15.2723C157.652 13.5191 160.358 12.6033 163.124 12.6891C168.019 12.6891 173.73 15.6824 174.709 22.2561H151.336Z" fill="white"/>
<path id="Vector_3" d="M192.045 0.434814H186.334V8.11662H181.855V13.5658H186.334V32.3196C186.334 39.3647 190.168 43.251 197.119 43.251H204.682V37.8018H197.119C193.758 37.8018 192.053 35.9579 192.053 32.3196V13.5658H204.918V8.11662H192.053L192.045 0.434814Z" fill="white"/>
<path id="Vector_4" d="M97.3445 22.8863C91.6338 21.6873 85.9231 20.4966 85.9231 17.0981C85.9231 15.0639 88.2727 12.5336 93.5347 12.5336C97.1325 12.5336 99.4166 13.8649 100.73 15.2045C101.474 15.9555 102.084 16.8311 102.533 17.7926H108.415C107.874 15.8862 106.979 14.1015 105.78 12.5336C103.569 9.93722 99.9713 7.27466 93.5427 7.27466C84.8951 7.27466 80.3919 11.8308 80.3919 17.0981C80.3919 23.6139 86.1026 26.1938 91.8133 27.401C97.524 28.6083 103.235 29.7907 103.235 33.1892C103.235 36.0006 100.885 38.4565 94.587 38.4565C93.1054 38.5282 91.6255 38.2842 90.2428 37.7401C88.86 37.196 87.6052 36.3641 86.5595 35.2978C85.6899 34.3907 85.0077 33.3168 84.5526 32.1391H78.6704C79.2612 34.2419 80.2505 36.2079 81.5829 37.9273C83.859 40.8048 87.8728 43.7155 94.587 43.7155C103.928 43.7155 108.774 38.8038 108.774 33.1892C108.766 26.7395 103.088 24.077 97.3445 22.8863Z" fill="white"/>
<path id="Vector_5" d="M130.379 22.8863C124.668 21.6873 118.958 20.4966 118.958 17.0981C118.958 15.0639 121.307 12.5336 126.569 12.5336C130.167 12.5336 132.443 13.8649 133.764 15.2045C134.506 15.9557 135.113 16.8314 135.559 17.7926H141.441C140.903 15.8867 140.011 14.102 138.815 12.5336C136.596 9.93722 132.998 7.27466 126.577 7.27466C117.922 7.27466 113.426 11.8308 113.426 17.0981C113.426 23.6139 119.096 26.1938 124.848 27.401C130.599 28.6083 136.269 29.7907 136.269 33.1892C136.269 36.0006 133.919 38.4565 127.621 38.4565C126.14 38.5282 124.66 38.2842 123.277 37.7401C121.894 37.196 120.64 36.3641 119.594 35.2978C118.722 34.3929 118.039 33.3184 117.587 32.1391H111.705C112.293 34.2414 113.279 36.2074 114.609 37.9273C116.893 40.8048 120.907 43.7155 127.621 43.7155C136.962 43.7155 141.809 38.8038 141.809 33.1892C141.8 26.7395 136.122 24.077 130.379 22.8863Z" fill="white"/>
<path id="Vector_6" d="M46.0745 43.119C46.9349 40.3354 48.6419 37.899 50.9512 36.1584C53.2606 34.4177 56.054 33.462 58.9317 33.4279C61.8102 33.4627 64.6043 34.4187 66.9148 36.1591C69.2253 37.8995 70.9341 40.3354 71.7971 43.119H76.9041C75.9969 38.9602 73.731 35.2336 70.4736 32.5428C67.2162 29.852 63.158 28.3545 58.9562 28.293C54.7544 28.3545 50.6962 29.852 47.4388 32.5428C44.1814 35.2336 41.9156 38.9602 41.0083 43.119H46.0745Z" fill="white"/>
<path id="Vector_7" d="M46.0723 43.1111L57.0206 12.4336H60.8141L71.7949 43.1276H77.9952L67.2671 13.1364C66.6462 11.3961 65.511 9.89218 64.016 8.82972C62.521 7.76726 60.739 7.19803 58.9132 7.19947C57.0866 7.19983 55.3046 7.7708 53.8097 8.83466C52.3149 9.89852 51.1798 11.4035 50.5592 13.1447L39.864 43.1276L46.0723 43.1111Z" fill="white"/>
</g>
</svg>
