<svg width="38" height="37" viewBox="0 0 38 37" fill="none" xmlns="http://www.w3.org/2000/svg">
<g id="4ASSET_S&#195;&#141;MBOLO">
<path id="Vector" d="M29.1138 18.1594C30.2233 18.1594 31.322 17.9378 32.347 17.5072C33.3719 17.0766 34.303 16.4454 35.0872 15.6498C35.8714 14.8542 36.4932 13.9099 36.917 12.8706C37.3409 11.8313 37.5586 10.7175 37.5576 9.59292C37.5576 7.32313 36.6679 5.14626 35.0844 3.54127C33.5009 1.93628 31.3532 1.03467 29.1138 1.03467C28.0043 1.03359 26.9054 1.2541 25.88 1.6837C24.8546 2.11331 23.9229 2.74353 23.138 3.53834C22.3531 4.33316 21.7302 5.27698 21.3054 6.31586C20.8806 7.35474 20.6619 8.46834 20.6619 9.59292C20.6619 11.8649 21.5524 14.0438 23.1374 15.6503C24.7224 17.2569 26.8722 18.1594 29.1138 18.1594Z" fill="#505FFF"/>
<path id="Vector_2" d="M8.57975 18.8962C7.47022 18.8962 6.37153 19.1179 5.34657 19.5485C4.3216 19.9791 3.39031 20.6102 2.60614 21.4058C1.82196 22.2014 1.20019 23.1458 0.776333 24.1851C0.352478 25.2244 0.134918 26.3382 0.13599 27.4628C0.13599 29.7326 1.02563 31.9093 2.60913 33.5143C4.19262 35.1193 6.34035 36.021 8.57975 36.021C9.68928 36.0221 10.7882 35.8016 11.8135 35.372C12.8389 34.9424 13.7706 34.3121 14.5556 33.5172C15.3405 32.7224 15.9631 31.7786 16.3879 30.7397C16.8128 29.7008 17.0315 28.5873 17.0315 27.4628C17.0315 25.1908 16.141 23.0118 14.556 21.4053C12.9709 19.7987 10.8213 18.8962 8.57975 18.8962Z" fill="#505FFF"/>
<path id="Vector_3" d="M23.8892 19.2173C18.5538 21.5409 15.7311 26.9817 17.583 31.3559C19.4349 35.7302 25.2761 37.4005 30.636 35.0769C35.9959 32.7534 38.7941 27.3125 36.9422 22.93C35.0903 18.5475 29.2328 16.8938 23.8892 19.2173Z" fill="#505FFF"/>
<path id="Vector_4" d="M13.7685 17.8375C19.1121 15.5139 21.9267 10.073 20.0748 5.69875C18.2229 1.32452 12.3898 -0.34579 7.02172 1.97776C1.65366 4.30131 -1.13641 9.74227 0.715485 14.1248C2.56738 18.5073 8.43309 20.1445 13.7685 17.8375Z" fill="#505FFF"/>
</g>
</svg>
